{
	"patcher" : 	{
		"fileversion" : 1,
		"rect" : [ 95.0, 75.0, 667.0, 480.0 ],
		"bglocked" : 0,
		"defrect" : [ 95.0, 75.0, 667.0, 480.0 ],
		"openrect" : [ 0.0, 0.0, 0.0, 0.0 ],
		"openinpresentation" : 0,
		"default_fontsize" : 12.0,
		"default_fontface" : 0,
		"default_fontname" : "Arial",
		"gridonopen" : 0,
		"gridsize" : [ 15.0, 15.0 ],
		"gridsnaponopen" : 0,
		"toolbarvisible" : 1,
		"boxanimatetime" : 200,
		"imprint" : 0,
		"enablehscroll" : 1,
		"enablevscroll" : 1,
		"devicewidth" : 0.0,
		"boxes" : [ 			{
				"box" : 				{
					"maxclass" : "newobj",
					"text" : "pattrforward csound~",
					"id" : "obj-22",
					"fontsize" : 12.0,
					"patching_rect" : [ 270.0, 330.0, 126.0, 20.0 ],
					"numinlets" : 1,
					"numoutlets" : 1,
					"fontname" : "Arial",
					"outlettype" : [ "" ]
				}

			}
, 			{
				"box" : 				{
					"maxclass" : "button",
					"id" : "obj-21",
					"patching_rect" : [ 270.0, 255.0, 33.0, 33.0 ],
					"numinlets" : 1,
					"numoutlets" : 1,
					"outlettype" : [ "bang" ]
				}

			}
, 			{
				"box" : 				{
					"maxclass" : "message",
					"text" : "wsidx 1 3 8",
					"id" : "obj-12",
					"fontsize" : 12.0,
					"patching_rect" : [ 540.0, 300.0, 71.0, 18.0 ],
					"numinlets" : 2,
					"numoutlets" : 1,
					"fontname" : "Arial",
					"outlettype" : [ "" ]
				}

			}
, 			{
				"box" : 				{
					"maxclass" : "message",
					"text" : "wsidx 1 2 4.",
					"id" : "obj-11",
					"fontsize" : 12.0,
					"patching_rect" : [ 450.0, 300.0, 74.0, 18.0 ],
					"numinlets" : 2,
					"numoutlets" : 1,
					"fontname" : "Arial",
					"outlettype" : [ "" ]
				}

			}
, 			{
				"box" : 				{
					"maxclass" : "message",
					"text" : "wsidx 1 1 2",
					"id" : "obj-10",
					"fontsize" : 12.0,
					"patching_rect" : [ 360.0, 300.0, 71.0, 18.0 ],
					"numinlets" : 2,
					"numoutlets" : 1,
					"fontname" : "Arial",
					"outlettype" : [ "" ]
				}

			}
, 			{
				"box" : 				{
					"maxclass" : "message",
					"text" : "wsidx 1 0 42.",
					"id" : "obj-8",
					"fontsize" : 12.0,
					"patching_rect" : [ 270.0, 300.0, 81.0, 18.0 ],
					"numinlets" : 2,
					"numoutlets" : 1,
					"fontname" : "Arial",
					"outlettype" : [ "" ]
				}

			}
, 			{
				"box" : 				{
					"maxclass" : "message",
					"text" : "select",
					"id" : "obj-7",
					"fontsize" : 12.0,
					"patching_rect" : [ 525.0, 120.0, 43.0, 18.0 ],
					"hidden" : 1,
					"numinlets" : 2,
					"numoutlets" : 1,
					"fontname" : "Arial",
					"outlettype" : [ "" ]
				}

			}
, 			{
				"box" : 				{
					"maxclass" : "message",
					"text" : "select",
					"id" : "obj-6",
					"fontsize" : 12.0,
					"patching_rect" : [ 480.0, 120.0, 43.0, 18.0 ],
					"hidden" : 1,
					"numinlets" : 2,
					"numoutlets" : 1,
					"fontname" : "Arial",
					"outlettype" : [ "" ]
				}

			}
, 			{
				"box" : 				{
					"maxclass" : "button",
					"id" : "obj-5",
					"patching_rect" : [ 435.0, 90.0, 20.0, 20.0 ],
					"numinlets" : 1,
					"numoutlets" : 1,
					"outlettype" : [ "bang" ]
				}

			}
, 			{
				"box" : 				{
					"maxclass" : "comment",
					"text" : "3",
					"id" : "obj-2",
					"textcolor" : [ 0.176471, 0.301961, 1.0, 1.0 ],
					"fontface" : 1,
					"fontsize" : 36.0,
					"patching_rect" : [ 324.0, 73.0, 38.0, 48.0 ],
					"numinlets" : 1,
					"frgb" : [ 0.176471, 0.301961, 1.0, 1.0 ],
					"numoutlets" : 0,
					"fontname" : "Arial"
				}

			}
, 			{
				"box" : 				{
					"maxclass" : "comment",
					"text" : "2",
					"id" : "obj-1",
					"textcolor" : [ 0.176471, 0.301961, 1.0, 1.0 ],
					"fontface" : 1,
					"fontsize" : 36.0,
					"patching_rect" : [ 488.0, 27.0, 38.0, 48.0 ],
					"numinlets" : 1,
					"frgb" : [ 0.176471, 0.301961, 1.0, 1.0 ],
					"numoutlets" : 0,
					"fontname" : "Arial"
				}

			}
, 			{
				"box" : 				{
					"maxclass" : "comment",
					"text" : "1",
					"id" : "obj-54",
					"textcolor" : [ 0.176471, 0.301961, 1.0, 1.0 ],
					"fontface" : 1,
					"fontsize" : 36.0,
					"patching_rect" : [ 15.0, 45.0, 38.0, 48.0 ],
					"numinlets" : 1,
					"frgb" : [ 0.176471, 0.301961, 1.0, 1.0 ],
					"numoutlets" : 0,
					"fontname" : "Arial"
				}

			}
, 			{
				"box" : 				{
					"maxclass" : "comment",
					"text" : "Click this button to start [csound~].",
					"linecount" : 2,
					"id" : "obj-52",
					"textcolor" : [ 0.337255, 0.254902, 0.113725, 1.0 ],
					"fontsize" : 14.0,
					"patching_rect" : [ 147.0, 73.0, 130.0, 39.0 ],
					"numinlets" : 1,
					"frgb" : [ 0.337255, 0.254902, 0.113725, 1.0 ],
					"numoutlets" : 0,
					"fontname" : "Arial"
				}

			}
, 			{
				"box" : 				{
					"maxclass" : "button",
					"id" : "obj-41",
					"patching_rect" : [ 60.0, 45.0, 87.0, 87.0 ],
					"numinlets" : 1,
					"numoutlets" : 1,
					"fgcolor" : [ 0.0, 1.0, 0.301961, 1.0 ],
					"outlettype" : [ "bang" ]
				}

			}
, 			{
				"box" : 				{
					"maxclass" : "button",
					"id" : "obj-3",
					"blinkcolor" : [ 1.0, 0.090196, 0.090196, 1.0 ],
					"patching_rect" : [ 26.0, 345.0, 33.0, 33.0 ],
					"numinlets" : 1,
					"numoutlets" : 1,
					"outlettype" : [ "bang" ]
				}

			}
, 			{
				"box" : 				{
					"maxclass" : "message",
					"text" : "rsidx 1 4 45.",
					"id" : "obj-4",
					"fontsize" : 24.0,
					"patching_rect" : [ 65.0, 345.0, 177.0, 32.0 ],
					"numinlets" : 2,
					"numoutlets" : 1,
					"bgcolor" : [ 0.984314, 1.0, 0.662745, 1.0 ],
					"fontname" : "Arial",
					"outlettype" : [ "" ]
				}

			}
, 			{
				"box" : 				{
					"maxclass" : "message",
					"text" : "stop",
					"id" : "obj-9",
					"fontsize" : 12.0,
					"patching_rect" : [ 15.0, 105.0, 35.0, 18.0 ],
					"numinlets" : 2,
					"numoutlets" : 1,
					"fontname" : "Arial",
					"outlettype" : [ "" ]
				}

			}
, 			{
				"box" : 				{
					"maxclass" : "comment",
					"text" : "When csound~ receives an \"rsidx\" message, it responds with an \"rsidx\" message where the 2nd element is the corresponding table value.",
					"linecount" : 5,
					"id" : "obj-14",
					"textcolor" : [ 0.431373, 0.090196, 0.082353, 1.0 ],
					"fontsize" : 12.0,
					"patching_rect" : [ 77.0, 238.0, 170.0, 75.0 ],
					"numinlets" : 1,
					"frgb" : [ 0.431373, 0.090196, 0.082353, 1.0 ],
					"numoutlets" : 0,
					"fontname" : "Arial"
				}

			}
, 			{
				"box" : 				{
					"maxclass" : "comment",
					"text" : "Arg #2: table index",
					"id" : "obj-16",
					"textcolor" : [ 0.431373, 0.090196, 0.082353, 1.0 ],
					"fontsize" : 12.0,
					"patching_rect" : [ 262.0, 204.0, 130.0, 20.0 ],
					"numinlets" : 1,
					"frgb" : [ 0.431373, 0.090196, 0.082353, 1.0 ],
					"numoutlets" : 0,
					"fontname" : "Arial"
				}

			}
, 			{
				"box" : 				{
					"maxclass" : "comment",
					"text" : "Arg #1: table #",
					"id" : "obj-17",
					"textcolor" : [ 0.431373, 0.090196, 0.082353, 1.0 ],
					"fontsize" : 12.0,
					"patching_rect" : [ 262.0, 185.0, 100.0, 20.0 ],
					"numinlets" : 1,
					"frgb" : [ 0.431373, 0.090196, 0.082353, 1.0 ],
					"numoutlets" : 0,
					"fontname" : "Arial"
				}

			}
, 			{
				"box" : 				{
					"maxclass" : "comment",
					"text" : "Arg #3: value",
					"id" : "obj-18",
					"textcolor" : [ 0.431373, 0.090196, 0.082353, 1.0 ],
					"fontsize" : 12.0,
					"patching_rect" : [ 425.0, 223.0, 128.0, 20.0 ],
					"numinlets" : 1,
					"frgb" : [ 0.431373, 0.090196, 0.082353, 1.0 ],
					"numoutlets" : 0,
					"fontname" : "Arial"
				}

			}
, 			{
				"box" : 				{
					"maxclass" : "comment",
					"text" : "Arg #2: table index",
					"id" : "obj-19",
					"textcolor" : [ 0.431373, 0.090196, 0.082353, 1.0 ],
					"fontsize" : 12.0,
					"patching_rect" : [ 425.0, 204.0, 130.0, 20.0 ],
					"numinlets" : 1,
					"frgb" : [ 0.431373, 0.090196, 0.082353, 1.0 ],
					"numoutlets" : 0,
					"fontname" : "Arial"
				}

			}
, 			{
				"box" : 				{
					"maxclass" : "comment",
					"text" : "Arg #1: table #",
					"id" : "obj-20",
					"textcolor" : [ 0.431373, 0.090196, 0.082353, 1.0 ],
					"fontsize" : 12.0,
					"patching_rect" : [ 425.0, 185.0, 100.0, 20.0 ],
					"numinlets" : 1,
					"frgb" : [ 0.431373, 0.090196, 0.082353, 1.0 ],
					"numoutlets" : 0,
					"fontname" : "Arial"
				}

			}
, 			{
				"box" : 				{
					"maxclass" : "comment",
					"text" : "value",
					"id" : "obj-23",
					"fontsize" : 12.0,
					"patching_rect" : [ 508.0, 70.0, 40.0, 20.0 ],
					"numinlets" : 1,
					"numoutlets" : 0,
					"fontname" : "Arial"
				}

			}
, 			{
				"box" : 				{
					"maxclass" : "comment",
					"text" : "index",
					"id" : "obj-24",
					"fontsize" : 12.0,
					"patching_rect" : [ 465.0, 70.0, 41.0, 20.0 ],
					"numinlets" : 1,
					"numoutlets" : 0,
					"fontname" : "Arial"
				}

			}
, 			{
				"box" : 				{
					"maxclass" : "newobj",
					"text" : "prepend set",
					"id" : "obj-25",
					"fontsize" : 12.0,
					"patching_rect" : [ 65.0, 321.0, 80.0, 20.0 ],
					"numinlets" : 1,
					"numoutlets" : 1,
					"fontname" : "Arial",
					"outlettype" : [ "" ]
				}

			}
, 			{
				"box" : 				{
					"maxclass" : "newobj",
					"text" : "pak rsidx 1 0",
					"id" : "obj-26",
					"fontsize" : 12.0,
					"patching_rect" : [ 254.0, 161.0, 90.0, 20.0 ],
					"numinlets" : 3,
					"numoutlets" : 1,
					"fontname" : "Arial",
					"outlettype" : [ "" ]
				}

			}
, 			{
				"box" : 				{
					"maxclass" : "flonum",
					"id" : "obj-27",
					"fontsize" : 12.0,
					"minimum" : 0.0,
					"patching_rect" : [ 508.0, 90.0, 40.0, 20.0 ],
					"numinlets" : 1,
					"maximum" : 127.0,
					"numoutlets" : 2,
					"htextcolor" : [ 0.870588, 0.870588, 0.870588, 1.0 ],
					"bgcolor" : [ 0.866667, 0.866667, 0.866667, 1.0 ],
					"fontname" : "Arial",
					"triscale" : 0.9,
					"outlettype" : [ "float", "bang" ]
				}

			}
, 			{
				"box" : 				{
					"maxclass" : "newobj",
					"text" : "pack wsidx 1 0 0.",
					"id" : "obj-28",
					"fontsize" : 12.0,
					"patching_rect" : [ 409.0, 161.0, 103.0, 20.0 ],
					"numinlets" : 4,
					"numoutlets" : 1,
					"fontname" : "Arial",
					"outlettype" : [ "" ]
				}

			}
, 			{
				"box" : 				{
					"maxclass" : "number",
					"id" : "obj-29",
					"fontsize" : 12.0,
					"minimum" : 0,
					"patching_rect" : [ 465.0, 90.0, 37.0, 20.0 ],
					"numinlets" : 1,
					"maximum" : 15,
					"numoutlets" : 2,
					"htextcolor" : [ 0.870588, 0.870588, 0.870588, 1.0 ],
					"bgcolor" : [ 0.866667, 0.866667, 0.866667, 1.0 ],
					"fontname" : "Arial",
					"triscale" : 0.9,
					"outlettype" : [ "int", "bang" ]
				}

			}
, 			{
				"box" : 				{
					"maxclass" : "number",
					"id" : "obj-30",
					"fontsize" : 12.0,
					"minimum" : 0,
					"patching_rect" : [ 325.0, 136.0, 37.0, 20.0 ],
					"numinlets" : 1,
					"numoutlets" : 2,
					"htextcolor" : [ 0.870588, 0.870588, 0.870588, 1.0 ],
					"bgcolor" : [ 0.866667, 0.866667, 0.866667, 1.0 ],
					"fontname" : "Arial",
					"triscale" : 0.9,
					"outlettype" : [ "int", "bang" ]
				}

			}
, 			{
				"box" : 				{
					"maxclass" : "newobj",
					"varname" : "csound~",
					"text" : "csound~ @args rsidx_wsidx.csd",
					"id" : "obj-35",
					"fontsize" : 12.0,
					"patching_rect" : [ 60.0, 195.0, 188.0, 20.0 ],
					"numinlets" : 2,
					"numoutlets" : 6,
					"fontname" : "Arial",
					"outlettype" : [ "signal", "signal", "list", "int", "bang", "bang" ],
					"saved_object_attributes" : 					{
						"bypass" : 0,
						"message" : 1,
						"input" : 1,
						"interval" : 10,
						"args" : "rsidx_wsidx.csd",
						"output" : 1,
						"autostart" : 0,
						"matchsr" : 1,
						"overdrive" : 0
					}

				}

			}
, 			{
				"box" : 				{
					"maxclass" : "comment",
					"text" : "index to read",
					"id" : "obj-36",
					"fontsize" : 12.0,
					"patching_rect" : [ 307.0, 116.0, 83.0, 20.0 ],
					"numinlets" : 1,
					"numoutlets" : 0,
					"fontname" : "Arial"
				}

			}
 ],
		"lines" : [ 			{
				"patchline" : 				{
					"source" : [ "obj-41", 0 ],
					"destination" : [ "obj-35", 0 ],
					"hidden" : 0,
					"midpoints" : [  ]
				}

			}
, 			{
				"patchline" : 				{
					"source" : [ "obj-26", 0 ],
					"destination" : [ "obj-35", 0 ],
					"hidden" : 1,
					"midpoints" : [ 263.5, 185.0, 69.5, 185.0 ]
				}

			}
, 			{
				"patchline" : 				{
					"source" : [ "obj-9", 0 ],
					"destination" : [ "obj-35", 0 ],
					"hidden" : 1,
					"midpoints" : [ 24.5, 185.0, 69.5, 185.0 ]
				}

			}
, 			{
				"patchline" : 				{
					"source" : [ "obj-35", 2 ],
					"destination" : [ "obj-25", 0 ],
					"hidden" : 0,
					"midpoints" : [ 137.100006, 230.0, 70.0, 230.0, 70.0, 317.0, 74.5, 317.0 ]
				}

			}
, 			{
				"patchline" : 				{
					"source" : [ "obj-28", 0 ],
					"destination" : [ "obj-35", 0 ],
					"hidden" : 1,
					"midpoints" : [ 418.5, 185.0, 69.5, 185.0 ]
				}

			}
, 			{
				"patchline" : 				{
					"source" : [ "obj-7", 0 ],
					"destination" : [ "obj-29", 0 ],
					"hidden" : 1,
					"midpoints" : [  ]
				}

			}
, 			{
				"patchline" : 				{
					"source" : [ "obj-27", 1 ],
					"destination" : [ "obj-7", 0 ],
					"hidden" : 1,
					"midpoints" : [  ]
				}

			}
, 			{
				"patchline" : 				{
					"source" : [ "obj-6", 0 ],
					"destination" : [ "obj-27", 0 ],
					"hidden" : 1,
					"midpoints" : [  ]
				}

			}
, 			{
				"patchline" : 				{
					"source" : [ "obj-29", 1 ],
					"destination" : [ "obj-6", 0 ],
					"hidden" : 1,
					"midpoints" : [  ]
				}

			}
, 			{
				"patchline" : 				{
					"source" : [ "obj-5", 0 ],
					"destination" : [ "obj-28", 0 ],
					"hidden" : 0,
					"midpoints" : [  ]
				}

			}
, 			{
				"patchline" : 				{
					"source" : [ "obj-29", 0 ],
					"destination" : [ "obj-28", 2 ],
					"hidden" : 0,
					"midpoints" : [  ]
				}

			}
, 			{
				"patchline" : 				{
					"source" : [ "obj-27", 0 ],
					"destination" : [ "obj-28", 3 ],
					"hidden" : 0,
					"midpoints" : [ 517.5, 158.0, 502.5, 158.0 ]
				}

			}
, 			{
				"patchline" : 				{
					"source" : [ "obj-30", 0 ],
					"destination" : [ "obj-26", 2 ],
					"hidden" : 0,
					"midpoints" : [  ]
				}

			}
, 			{
				"patchline" : 				{
					"source" : [ "obj-25", 0 ],
					"destination" : [ "obj-4", 0 ],
					"hidden" : 0,
					"midpoints" : [  ]
				}

			}
, 			{
				"patchline" : 				{
					"source" : [ "obj-25", 0 ],
					"destination" : [ "obj-3", 0 ],
					"hidden" : 0,
					"midpoints" : [ 74.5, 341.0, 35.5, 341.0 ]
				}

			}
, 			{
				"patchline" : 				{
					"source" : [ "obj-21", 0 ],
					"destination" : [ "obj-8", 0 ],
					"hidden" : 0,
					"midpoints" : [  ]
				}

			}
, 			{
				"patchline" : 				{
					"source" : [ "obj-21", 0 ],
					"destination" : [ "obj-10", 0 ],
					"hidden" : 0,
					"midpoints" : [  ]
				}

			}
, 			{
				"patchline" : 				{
					"source" : [ "obj-21", 0 ],
					"destination" : [ "obj-11", 0 ],
					"hidden" : 0,
					"midpoints" : [  ]
				}

			}
, 			{
				"patchline" : 				{
					"source" : [ "obj-21", 0 ],
					"destination" : [ "obj-12", 0 ],
					"hidden" : 0,
					"midpoints" : [  ]
				}

			}
, 			{
				"patchline" : 				{
					"source" : [ "obj-8", 0 ],
					"destination" : [ "obj-22", 0 ],
					"hidden" : 0,
					"midpoints" : [  ]
				}

			}
, 			{
				"patchline" : 				{
					"source" : [ "obj-10", 0 ],
					"destination" : [ "obj-22", 0 ],
					"hidden" : 0,
					"midpoints" : [  ]
				}

			}
, 			{
				"patchline" : 				{
					"source" : [ "obj-11", 0 ],
					"destination" : [ "obj-22", 0 ],
					"hidden" : 0,
					"midpoints" : [  ]
				}

			}
, 			{
				"patchline" : 				{
					"source" : [ "obj-12", 0 ],
					"destination" : [ "obj-22", 0 ],
					"hidden" : 0,
					"midpoints" : [  ]
				}

			}
 ]
	}

}
